<svg viewBox="0 0 1200 1800" xmlns="http://www.w3.org/2000/svg" font-family="'Segoe UI', Arial, sans-serif">
  <defs>
    <linearGradient id="bgGrad" x1="0" y1="0" x2="0" y2="1">
      <stop offset="0%" stop-color="#0f1117"/>
      <stop offset="100%" stop-color="#1a1d2e"/>
    </linearGradient>
    <linearGradient id="boardGrad" x1="0" y1="0" x2="0" y2="1">
      <stop offset="0%" stop-color="#1e2235"/>
      <stop offset="100%" stop-color="#161928"/>
    </linearGradient>
    <linearGradient id="a35Grad" x1="0" y1="0" x2="1" y2="1">
      <stop offset="0%" stop-color="#1a3a5c"/>
      <stop offset="100%" stop-color="#0d2540"/>
    </linearGradient>
    <linearGradient id="m33Grad" x1="0" y1="0" x2="1" y2="1">
      <stop offset="0%" stop-color="#3a1a1a"/>
      <stop offset="100%" stop-color="#2a0d0d"/>
    </linearGradient>
    <linearGradient id="sharedGrad" x1="0" y1="0" x2="1" y2="0">
      <stop offset="0%" stop-color="#1a3a5c"/>
      <stop offset="50%" stop-color="#2d1f4a"/>
      <stop offset="100%" stop-color="#3a1a1a"/>
    </linearGradient>
    <linearGradient id="otaGrad" x1="0" y1="0" x2="0" y2="1">
      <stop offset="0%" stop-color="#1a3a20"/>
      <stop offset="100%" stop-color="#0d2515"/>
    </linearGradient>
    <filter id="glow">
      <feGaussianBlur stdDeviation="3" result="coloredBlur"/>
      <feMerge><feMergeNode in="coloredBlur"/><feMergeNode in="SourceGraphic"/></feMerge>
    </filter>
    <filter id="shadow">
      <feDropShadow dx="0" dy="4" stdDeviation="8" flood-color="#000" flood-opacity="0.5"/>
    </filter>
    <marker id="arrowBlue" markerWidth="10" markerHeight="7" refX="10" refY="3.5" orient="auto">
      <polygon points="0 0, 10 3.5, 0 7" fill="#4a9eff"/>
    </marker>
    <marker id="arrowOrange" markerWidth="10" markerHeight="7" refX="10" refY="3.5" orient="auto">
      <polygon points="0 0, 10 3.5, 0 7" fill="#ff8c42"/>
    </marker>
    <marker id="arrowGreen" markerWidth="10" markerHeight="7" refX="10" refY="3.5" orient="auto">
      <polygon points="0 0, 10 3.5, 0 7" fill="#4aff8c"/>
    </marker>
    <marker id="arrowWhite" markerWidth="10" markerHeight="7" refX="10" refY="3.5" orient="auto">
      <polygon points="0 0, 10 3.5, 0 7" fill="#ffffff88"/>
    </marker>
  </defs>

  <!-- Background -->
  <rect width="1200" height="1800" fill="url(#bgGrad)"/>

  <!-- ═══════════════════════════════════════════════════════ -->
  <!-- TITLE -->
  <!-- ═══════════════════════════════════════════════════════ -->
  <text x="600" y="48" text-anchor="middle" font-size="26" font-weight="700" fill="#ffffff" letter-spacing="2">STM32MP257FDK — Project Architecture</text>
  <text x="600" y="70" text-anchor="middle" font-size="13" fill="#8899bb">Cortex-A35 (Linux) + Cortex-M33 (bare-metal) · RPMsg IPC · OTA update</text>
  <line x1="80" y1="82" x2="1120" y2="82" stroke="#4a9eff44" stroke-width="1"/>

  <!-- ═══════════════════════════════════════════════════════ -->
  <!-- SECTION 1 — BOARD OVERVIEW -->
  <!-- ═══════════════════════════════════════════════════════ -->
  <text x="600" y="112" text-anchor="middle" font-size="14" fill="#4a9eff" letter-spacing="3" font-weight="600">① HARDWARE OVERVIEW</text>

  <!-- Board outline -->
  <rect x="60" y="122" width="1080" height="290" rx="16" fill="url(#boardGrad)" stroke="#3a4a6a" stroke-width="2" filter="url(#shadow)"/>
  <text x="600" y="148" text-anchor="middle" font-size="13" fill="#6a7a9a" letter-spacing="1">STM32MP257FAK3 SoC</text>

  <!-- A35 block -->
  <rect x="90" y="158" width="440" height="234" rx="12" fill="url(#a35Grad)" stroke="#4a9eff66" stroke-width="1.5"/>
  <rect x="90" y="158" width="440" height="30" rx="12" fill="#4a9eff22"/>
  <rect x="90" y="176" width="440" height="12" rx="0" fill="#4a9eff22"/>
  <text x="310" y="179" text-anchor="middle" font-size="14" font-weight="700" fill="#4a9eff">🖥  Cortex-A35 · OpenSTLinux</text>

  <rect x="108" y="198" width="195" height="56" rx="8" fill="#ffffff0a" stroke="#4a9eff33" stroke-width="1"/>
  <text x="206" y="215" text-anchor="middle" font-size="11" font-weight="600" fill="#7ab8ff">stm32mp257fdk_app</text>
  <text x="206" y="230" text-anchor="middle" font-size="10" fill="#8899bb">Demo: cycles PING/LED/STATUS</text>
  <text x="206" y="244" text-anchor="middle" font-size="10" fill="#8899bb">every 1 s via /dev/ttyRPMSG0</text>

  <rect x="315" y="198" width="195" height="56" rx="8" fill="#ffffff0a" stroke="#ff8c4233" stroke-width="1"/>
  <text x="413" y="215" text-anchor="middle" font-size="11" font-weight="600" fill="#ffb07a">ota_update</text>
  <text x="413" y="230" text-anchor="middle" font-size="10" fill="#8899bb">CLI: OTA_PREPARE → stop M33</text>
  <text x="413" y="244" text-anchor="middle" font-size="10" fill="#8899bb">→ swap ELF → restart → PING</text>

  <rect x="108" y="264" width="402" height="36" rx="8" fill="#ffffff08" stroke="#ffffff11" stroke-width="1"/>
  <text x="206" y="279" text-anchor="middle" font-size="10" fill="#6a7aaa">📦 ipc_ota (static lib)</text>
  <text x="206" y="293" text-anchor="middle" font-size="9.5" fill="#556688">ipc_rpmsg.cpp · ota_manager.cpp</text>
  <text x="360" y="279" text-anchor="start" font-size="10" fill="#6a7aaa">🐧 /dev/ttyRPMSG0</text>
  <text x="360" y="293" text-anchor="start" font-size="9.5" fill="#556688">rpmsg_tty kernel driver</text>

  <rect x="108" y="310" width="402" height="66" rx="8" fill="#ffffff06" stroke="#ffffff0d" stroke-width="1"/>
  <text x="200" y="325" text-anchor="middle" font-size="10" fill="#6a7aaa">📁 /lib/firmware/</text>
  <text x="200" y="339" text-anchor="middle" font-size="9.5" fill="#445577">stm32mp257fdk_m33.elf  (active)</text>
  <text x="200" y="353" text-anchor="middle" font-size="9.5" fill="#445577">stm32mp257fdk_m33.elf.bak (OTA backup)</text>
  <text x="380" y="325" text-anchor="middle" font-size="10" fill="#6a7aaa">🔧 remoteproc sysfs</text>
  <text x="380" y="339" text-anchor="middle" font-size="9.5" fill="#445577">remoteproc0/state</text>
  <text x="380" y="353" text-anchor="middle" font-size="9.5" fill="#445577">remoteproc0/firmware</text>
  <text x="380" y="367" text-anchor="middle" font-size="9.5" fill="#445577">stop · start · offline · running</text>

  <!-- M33 block -->
  <rect x="670" y="158" width="440" height="234" rx="12" fill="url(#m33Grad)" stroke="#ff6a6a66" stroke-width="1.5"/>
  <rect x="670" y="158" width="440" height="30" rx="12" fill="#ff4a4a22"/>
  <rect x="670" y="176" width="440" height="12" rx="0" fill="#ff4a4a22"/>
  <text x="890" y="179" text-anchor="middle" font-size="14" font-weight="700" fill="#ff7a7a">⚙  Cortex-M33 · Bare-metal</text>

  <rect x="688" y="198" width="190" height="86" rx="8" fill="#ffffff0a" stroke="#ff6a6a33" stroke-width="1"/>
  <text x="783" y="215" text-anchor="middle" font-size="11" font-weight="600" fill="#ff9a9a">main.c</text>
  <text x="783" y="230" text-anchor="middle" font-size="10" fill="#8899bb">HAL_Init()</text>
  <text x="783" y="244" text-anchor="middle" font-size="10" fill="#8899bb">uart_log_init()</text>
  <text x="783" y="258" text-anchor="middle" font-size="10" fill="#8899bb">IPC_Init()</text>
  <text x="783" y="272" text-anchor="middle" font-size="10" fill="#8899bb">loop: blink LED + IPC_Process()</text>

  <rect x="890" y="198" width="200" height="86" rx="8" fill="#ffffff0a" stroke="#ff6a6a33" stroke-width="1"/>
  <text x="990" y="215" text-anchor="middle" font-size="11" font-weight="600" fill="#ff9a9a">ipc_handler.c</text>
  <text x="990" y="230" text-anchor="middle" font-size="10" fill="#8899bb">vring driver (no OpenAMP)</text>
  <text x="990" y="244" text-anchor="middle" font-size="10" fill="#8899bb">RPMsg NS announcement</text>
  <text x="990" y="258" text-anchor="middle" font-size="10" fill="#8899bb">command dispatcher</text>
  <text x="990" y="272" text-anchor="middle" font-size="10" fill="#8899bb">OTA freeze (WFI loop)</text>

  <rect x="688" y="295" width="402" height="36" rx="8" fill="#ffffff08" stroke="#ffffff11" stroke-width="1"/>
  <text x="783" y="310" text-anchor="middle" font-size="10" fill="#6a7aaa">🔢 fw_version.h</text>
  <text x="783" y="324" text-anchor="middle" font-size="9.5" fill="#556688">v1.0.0 + build timestamp → IPC_CMD_GET_VERSION</text>
  <text x="990" y="310" text-anchor="middle" font-size="10" fill="#6a7aaa">📋 uart_log.c</text>
  <text x="990" y="324" text-anchor="middle" font-size="9.5" fill="#556688">LOG_INFO/WARN/ERR → UART4 @115200</text>

  <rect x="688" y="341" width="402" height="36" rx="8" fill="#ffffff06" stroke="#ffffff0d" stroke-width="1"/>
  <text x="783" y="357" text-anchor="middle" font-size="10" fill="#6a7aaa">🔗 Linker: STM32MP257FAIX_FLASH.ld</text>
  <text x="783" y="371" text-anchor="middle" font-size="9.5" fill="#556688">SRAM1(rx) 0x0A000000 / SRAM2(rw) 0x0A040000</text>
  <text x="990" y="357" text-anchor="middle" font-size="10" fill="#6a7aaa">🔧 syscalls.c</text>
  <text x="990" y="371" text-anchor="middle" font-size="9.5" fill="#556688">newlib stubs (no warnings)</text>

  <!-- Shared DDR band -->
  <rect x="530" y="165" width="140" height="214" rx="10" fill="url(#sharedGrad)" stroke="#9a6aff44" stroke-width="1.5"/>
  <text x="600" y="186" text-anchor="middle" font-size="10" font-weight="700" fill="#bb9aff">shared/ipc/</text>
  <text x="600" y="202" text-anchor="middle" font-size="9" fill="#8877cc">resource_table.h/.c</text>
  <text x="600" y="216" text-anchor="middle" font-size="9" fill="#8877cc">virt_uart.h</text>
  <line x1="545" y1="224" x2="655" y2="224" stroke="#9a6aff33" stroke-width="1"/>
  <text x="600" y="240" text-anchor="middle" font-size="9" fill="#9a6aff">DDR carve-out</text>
  <text x="600" y="254" text-anchor="middle" font-size="8.5" fill="#6655aa">0x87E00000</text>
  <text x="600" y="268" text-anchor="middle" font-size="8.5" fill="#6655aa">1 MB</text>
  <line x1="545" y1="278" x2="655" y2="278" stroke="#9a6aff33" stroke-width="1"/>
  <text x="600" y="294" text-anchor="middle" font-size="9" fill="#9a6aff">TX vring</text>
  <text x="600" y="308" text-anchor="middle" font-size="8.5" fill="#6655aa">M33→A35</text>
  <line x1="545" y1="316" x2="655" y2="316" stroke="#9a6aff33" stroke-width="1"/>
  <text x="600" y="332" text-anchor="middle" font-size="9" fill="#9a6aff">RX vring</text>
  <text x="600" y="346" text-anchor="middle" font-size="8.5" fill="#6655aa">A35→M33</text>
  <text x="600" y="367" text-anchor="middle" font-size="8" fill="#554488">16 bufs × 512 B</text>

  <!-- IPC arrows -->
  <line x1="530" y1="230" x2="478" y2="230" stroke="#4a9eff" stroke-width="2" stroke-dasharray="4,3" marker-end="url(#arrowBlue)"/>
  <line x1="530" y1="310" x2="478" y2="310" stroke="#4a9eff" stroke-width="2" stroke-dasharray="4,3" marker-end="url(#arrowBlue)"/>
  <line x1="670" y1="230" x2="722" y2="230" stroke="#ff7a7a" stroke-width="2" stroke-dasharray="4,3" marker-end="url(#arrowWhite)"/>
  <line x1="670" y1="310" x2="722" y2="310" stroke="#ff7a7a" stroke-width="2" stroke-dasharray="4,3" marker-end="url(#arrowWhite)"/>
  <text x="504" y="225" text-anchor="middle" font-size="8" fill="#4a9eff">RX</text>
  <text x="504" y="305" text-anchor="middle" font-size="8" fill="#4a9eff">TX</text>

  <!-- ═══════════════════════════════════════════════════════ -->
  <!-- SECTION 2 — IPC PROTOCOL -->
  <!-- ═══════════════════════════════════════════════════════ -->
  <line x1="80" y1="428" x2="1120" y2="428" stroke="#4a9eff22" stroke-width="1"/>
  <text x="600" y="452" text-anchor="middle" font-size="14" fill="#4a9eff" letter-spacing="3" font-weight="600">② IPC PROTOCOL — WIRE FORMAT</text>

  <!-- CMD packet -->
  <text x="200" y="480" text-anchor="middle" font-size="12" font-weight="600" fill="#7ab8ff">Command  A35 → M33  (5 bytes)</text>
  <rect x="60" y="488" width="70" height="36" rx="6" fill="#4a9eff33" stroke="#4a9eff" stroke-width="1.5"/>
  <text x="95" y="502" text-anchor="middle" font-size="10" fill="#ffffff">0xAA</text>
  <text x="95" y="516" text-anchor="middle" font-size="9" fill="#8899bb">SOF</text>
  <rect x="134" y="488" width="70" height="36" rx="6" fill="#4a9eff22" stroke="#4a9eff88" stroke-width="1.5"/>
  <text x="169" y="502" text-anchor="middle" font-size="10" fill="#ffffff">CMD</text>
  <text x="169" y="516" text-anchor="middle" font-size="9" fill="#8899bb">0x01..0x06</text>
  <rect x="208" y="488" width="70" height="36" rx="6" fill="#4a9eff22" stroke="#4a9eff88" stroke-width="1.5"/>
  <text x="243" y="502" text-anchor="middle" font-size="10" fill="#ffffff">ARG_LO</text>
  <text x="243" y="516" text-anchor="middle" font-size="9" fill="#8899bb">byte 0</text>
  <rect x="282" y="488" width="70" height="36" rx="6" fill="#4a9eff22" stroke="#4a9eff88" stroke-width="1.5"/>
  <text x="317" y="502" text-anchor="middle" font-size="10" fill="#ffffff">ARG_HI</text>
  <text x="317" y="516" text-anchor="middle" font-size="9" fill="#8899bb">byte 1</text>
  <rect x="356" y="488" width="70" height="36" rx="6" fill="#4a9eff33" stroke="#4a9eff" stroke-width="1.5"/>
  <text x="391" y="502" text-anchor="middle" font-size="10" fill="#ffffff">0x55</text>
  <text x="391" y="516" text-anchor="middle" font-size="9" fill="#8899bb">EOF</text>

  <!-- RESP packet -->
  <text x="800" y="480" text-anchor="middle" font-size="12" font-weight="600" fill="#ff9a9a">Response  M33 → A35  (8 bytes)</text>
  <rect x="610" y="488" width="65" height="36" rx="6" fill="#ff4a4a33" stroke="#ff6a6a" stroke-width="1.5"/>
  <text x="643" y="502" text-anchor="middle" font-size="10" fill="#ffffff">0xBB</text>
  <text x="643" y="516" text-anchor="middle" font-size="9" fill="#8899bb">SOF</text>
  <rect x="679" y="488" width="65" height="36" rx="6" fill="#ff4a4a22" stroke="#ff6a6a88" stroke-width="1.5"/>
  <text x="712" y="502" text-anchor="middle" font-size="10" fill="#ffffff">CMD</text>
  <text x="712" y="516" text-anchor="middle" font-size="9" fill="#8899bb">echoed</text>
  <rect x="748" y="488" width="65" height="36" rx="6" fill="#ff4a4a22" stroke="#ff6a6a88" stroke-width="1.5"/>
  <text x="781" y="502" text-anchor="middle" font-size="10" fill="#ffffff">ARG_LO</text>
  <text x="781" y="516" text-anchor="middle" font-size="9" fill="#8899bb">payload</text>
  <rect x="817" y="488" width="65" height="36" rx="6" fill="#ff4a4a22" stroke="#ff6a6a88" stroke-width="1.5"/>
  <text x="850" y="502" text-anchor="middle" font-size="10" fill="#ffffff">ARG_HI</text>
  <text x="850" y="516" text-anchor="middle" font-size="9" fill="#8899bb">payload</text>
  <rect x="886" y="488" width="65" height="36" rx="6" fill="#ffaa4422" stroke="#ffaa4488" stroke-width="1.5"/>
  <text x="919" y="502" text-anchor="middle" font-size="10" fill="#ffffff">STATUS</text>
  <text x="919" y="516" text-anchor="middle" font-size="9" fill="#8899bb">OK/ERR</text>
  <rect x="955" y="488" width="65" height="36" rx="6" fill="#ffffff0a" stroke="#ffffff22" stroke-width="1.5"/>
  <text x="988" y="502" text-anchor="middle" font-size="10" fill="#ffffff">TICK</text>
  <text x="988" y="516" text-anchor="middle" font-size="9" fill="#8899bb">2 bytes</text>
  <rect x="1024" y="488" width="65" height="36" rx="6" fill="#ff4a4a33" stroke="#ff6a6a" stroke-width="1.5"/>
  <text x="1057" y="502" text-anchor="middle" font-size="10" fill="#ffffff">0x55</text>
  <text x="1057" y="516" text-anchor="middle" font-size="9" fill="#8899bb">EOF</text>

  <!-- Command table -->
  <rect x="60" y="540" width="1080" height="130" rx="10" fill="#ffffff05" stroke="#ffffff0d" stroke-width="1"/>
  <text x="600" y="560" text-anchor="middle" font-size="11" font-weight="600" fill="#aabbcc">Commands</text>
  <!-- Row 1 -->
  <rect x="75" y="568" width="100" height="26" rx="5" fill="#4a9eff22" stroke="#4a9eff44"/>
  <text x="125" y="585" text-anchor="middle" font-size="10" fill="#7ab8ff">0x01 PING</text>
  <text x="230" y="585" text-anchor="start" font-size="10" fill="#8899bb">M33 replies OK + tick</text>

  <rect x="75" y="598" width="100" height="26" rx="5" fill="#4a9eff22" stroke="#4a9eff44"/>
  <text x="125" y="615" text-anchor="middle" font-size="10" fill="#7ab8ff">0x02 LED_SET</text>
  <text x="230" y="615" text-anchor="start" font-size="10" fill="#8899bb">ARG_LO: 0=off 1=on — GPIO toggle</text>

  <rect x="75" y="628" width="100" height="26" rx="5" fill="#4a9eff22" stroke="#4a9eff44"/>
  <text x="125" y="645" text-anchor="middle" font-size="10" fill="#7ab8ff">0x03 LED_BLINK</text>
  <text x="230" y="645" text-anchor="start" font-size="10" fill="#8899bb">ARG = interval ms → updates g_blink_ms</text>

  <!-- Row 2 -->
  <rect x="430" y="568" width="110" height="26" rx="5" fill="#ffaa4422" stroke="#ffaa4444"/>
  <text x="485" y="585" text-anchor="middle" font-size="10" fill="#ffcc88">0x04 GET_STATUS</text>
  <text x="555" y="585" text-anchor="start" font-size="10" fill="#8899bb">replies current HAL_GetTick()</text>

  <rect x="430" y="598" width="110" height="26" rx="5" fill="#ffaa4422" stroke="#ffaa4444"/>
  <text x="485" y="615" text-anchor="middle" font-size="10" fill="#ffcc88">0x05 GET_VERSION</text>
  <text x="555" y="615" text-anchor="start" font-size="10" fill="#8899bb">ARG_LO=major ARG_HI=minor STATUS=patch</text>

  <rect x="430" y="628" width="110" height="26" rx="5" fill="#ff4a9a22" stroke="#ff4a9a44"/>
  <text x="485" y="645" text-anchor="middle" font-size="10" fill="#ff88cc">0x06 OTA_PREPARE</text>
  <text x="555" y="645" text-anchor="start" font-size="10" fill="#8899bb">M33 freezes IPC, STATUS=0x01 ready / 0x02 busy</text>

  <!-- ═══════════════════════════════════════════════════════ -->
  <!-- SECTION 3 — OTA FLOW -->
  <!-- ═══════════════════════════════════════════════════════ -->
  <line x1="80" y1="688" x2="1120" y2="688" stroke="#4aff8c22" stroke-width="1"/>
  <text x="600" y="712" text-anchor="middle" font-size="14" fill="#4aff8c" letter-spacing="3" font-weight="600">③ OTA UPDATE FLOW</text>

  <!-- A35 column -->
  <rect x="80" y="724" width="220" height="30" rx="8" fill="#1a3a5c" stroke="#4a9eff66"/>
  <text x="190" y="744" text-anchor="middle" font-size="12" font-weight="600" fill="#7ab8ff">A35  (ota_update)</text>

  <!-- M33 column -->
  <rect x="900" y="724" width="220" height="30" rx="8" fill="#3a1a1a" stroke="#ff6a6a66"/>
  <text x="1010" y="744" text-anchor="middle" font-size="12" font-weight="600" fill="#ff9a9a">M33  (ipc_handler.c)</text>

  <!-- Steps -->
  <!-- Step 1 -->
  <rect x="80" y="770" width="460" height="36" rx="8" fill="#1a3a5c88" stroke="#4a9eff44"/>
  <text x="100" y="784" font-size="10" font-weight="700" fill="#4a9eff">①</text>
  <text x="120" y="784" font-size="10" fill="#aabbcc">Verify SHA256 of new ELF (or skip if no .sha256 file)</text>
  <text x="120" y="798" font-size="9.5" fill="#667788">ota_manager.cpp → sha256sum · verify_sha256()</text>
  <line x1="540" y1="788" x2="890" y2="788" stroke="#ffffff11" stroke-width="1" stroke-dasharray="4,3"/>

  <!-- Step 2 -->
  <rect x="80" y="814" width="460" height="36" rx="8" fill="#1a3a5c88" stroke="#4a9eff44"/>
  <text x="100" y="828" font-size="10" font-weight="700" fill="#4a9eff">②</text>
  <text x="120" y="828" font-size="10" fill="#aabbcc">Send IPC_CMD_OTA_PREPARE (0x06)</text>
  <text x="120" y="842" font-size="9.5" fill="#667788">channel.send_cmd(Cmd::OtaPrepare, 0)</text>
  <line x1="540" y1="832" x2="890" y2="832" stroke="#4aff8c" stroke-width="1.5" stroke-dasharray="5,3" marker-end="url(#arrowGreen)"/>

  <rect x="900" y="814" width="280" height="36" rx="8" fill="#3a1a1a88" stroke="#ff6a6a44"/>
  <text x="920" y="828" font-size="10" fill="#ff9a9a">Set s_ota_pending=1</text>
  <text x="920" y="842" font-size="9.5" fill="#667788">Reply STATUS=0x01 (IPC_OTA_READY)</text>

  <!-- Step 3 -->
  <rect x="80" y="858" width="460" height="36" rx="8" fill="#1a3a5c88" stroke="#4a9eff44"/>
  <text x="100" y="872" font-size="10" font-weight="700" fill="#4a9eff">③</text>
  <text x="120" y="872" font-size="10" fill="#aabbcc">Wait ACK · close channel</text>
  <text x="120" y="886" font-size="9.5" fill="#667788">channel.receive_resp() · channel.close()</text>
  <line x1="890" y1="850" x2="540" y2="850" stroke="#4aff8c" stroke-width="1.5" stroke-dasharray="5,3" marker-end="url(#arrowGreen)"/>

  <rect x="900" y="858" width="280" height="36" rx="8" fill="#3a1a1a88" stroke="#ff6a6a44"/>
  <text x="920" y="872" font-size="10" fill="#ff9a9a">IPC_Process() returns immediately</text>
  <text x="920" y="886" font-size="9.5" fill="#667788">main loop spins in __WFI()</text>

  <!-- Step 4 -->
  <rect x="80" y="902" width="460" height="36" rx="8" fill="#1a3a5c88" stroke="#4a9eff44"/>
  <text x="100" y="916" font-size="10" font-weight="700" fill="#4a9eff">④</text>
  <text x="120" y="916" font-size="10" fill="#aabbcc">echo stop &gt; remoteproc0/state</text>
  <text x="120" y="930" font-size="9.5" fill="#667788">write_state("stop") · wait_for_state("offline", 10s)</text>
  <line x1="540" y1="920" x2="890" y2="920" stroke="#ffffff22" stroke-width="1" stroke-dasharray="4,3"/>

  <rect x="900" y="902" width="280" height="36" rx="8" fill="#1a1a1a88" stroke="#ffffff11"/>
  <text x="920" y="916" font-size="10" fill="#888899">⬛ Core stopped by remoteproc</text>
  <text x="920" y="930" font-size="9.5" fill="#556677">state = "offline"</text>

  <!-- Step 5 -->
  <rect x="80" y="946" width="460" height="36" rx="8" fill="#1a3a5c88" stroke="#4a9eff44"/>
  <text x="100" y="960" font-size="10" font-weight="700" fill="#4a9eff">⑤</text>
  <text x="120" y="960" font-size="10" fill="#aabbcc">Backup old ELF · copy new ELF</text>
  <text x="120" y="974" font-size="9.5" fill="#667788">install_firmware() → /lib/firmware/stm32mp257fdk_m33.elf</text>

  <!-- Step 6 -->
  <rect x="80" y="990" width="460" height="36" rx="8" fill="#1a3a5c88" stroke="#4a9eff44"/>
  <text x="100" y="1004" font-size="10" font-weight="700" fill="#4a9eff">⑥</text>
  <text x="120" y="1004" font-size="10" fill="#aabbcc">echo start &gt; remoteproc0/state</text>
  <text x="120" y="1018" font-size="9.5" fill="#667788">write_state("start") · wait_for_state("running", 10s)</text>
  <line x1="540" y1="1008" x2="890" y2="1008" stroke="#ffffff22" stroke-width="1" stroke-dasharray="4,3"/>

  <rect x="900" y="990" width="280" height="36" rx="8" fill="#1a3a1a88" stroke="#4aff8c33"/>
  <text x="920" y="1004" font-size="10" fill="#4aff8c">🔄 Core boots new firmware</text>
  <text x="920" y="1018" font-size="9.5" fill="#336644">Reset_Handler → main() → IPC_Init()</text>

  <!-- Step 7 -->
  <rect x="80" y="1034" width="460" height="36" rx="8" fill="#1a3a5c88" stroke="#4a9eff44"/>
  <text x="100" y="1048" font-size="10" font-weight="700" fill="#4a9eff">⑦</text>
  <text x="120" y="1048" font-size="10" fill="#aabbcc">Wait /dev/ttyRPMSG0 (15s timeout)</text>
  <text x="120" y="1062" font-size="9.5" fill="#667788">wait_for_device() · new RpmsgChannel open()</text>
  <line x1="890" y1="1052" x2="540" y2="1052" stroke="#4aff8c" stroke-width="1.5" stroke-dasharray="5,3" marker-end="url(#arrowGreen)"/>

  <rect x="900" y="1034" width="280" height="36" rx="8" fill="#1a3a1a88" stroke="#4aff8c33"/>
  <text x="920" y="1048" font-size="10" fill="#4aff8c">NS announcement sent</text>
  <text x="920" y="1062" font-size="9.5" fill="#336644">/dev/ttyRPMSG0 created by kernel</text>

  <!-- Step 8 -->
  <rect x="80" y="1078" width="460" height="36" rx="8" fill="#1a3a5c88" stroke="#4a9eff44"/>
  <text x="100" y="1092" font-size="10" font-weight="700" fill="#4a9eff">⑧</text>
  <text x="120" y="1092" font-size="10" fill="#aabbcc">PING health-check (5s timeout)</text>
  <text x="120" y="1106" font-size="9.5" fill="#667788">health_check() → send PING → expect STATUS=OK</text>
  <line x1="540" y1="1096" x2="890" y2="1096" stroke="#4aff8c" stroke-width="1.5" stroke-dasharray="5,3" marker-end="url(#arrowGreen)"/>

  <rect x="900" y="1078" width="280" height="36" rx="8" fill="#1a3a1a88" stroke="#4aff8c33"/>
  <text x="920" y="1092" font-size="10" fill="#4aff8c">PONG response</text>
  <text x="920" y="1106" font-size="9.5" fill="#336644">STATUS=0x00 · M33 alive ✓</text>

  <!-- Result OK -->
  <rect x="80" y="1122" width="200" height="32" rx="8" fill="#1a4a2a" stroke="#4aff8c" stroke-width="2"/>
  <text x="180" y="1142" text-anchor="middle" font-size="12" font-weight="700" fill="#4aff8c">✅  Result::Ok</text>

  <!-- Rollback path -->
  <rect x="320" y="1122" width="220" height="32" rx="8" fill="#4a1a1a" stroke="#ff4a4a" stroke-width="1.5"/>
  <text x="430" y="1138" text-anchor="middle" font-size="10" fill="#ff7a7a">❌ Any step fails →</text>
  <text x="430" y="1150" text-anchor="middle" font-size="9.5" fill="#cc5555">restore backup → restart → RollbackOk/Failed</text>

  <!-- ═══════════════════════════════════════════════════════ -->
  <!-- SECTION 4 — FILE MAP -->
  <!-- ═══════════════════════════════════════════════════════ -->
  <line x1="80" y1="1174" x2="1120" y2="1174" stroke="#ffaa4422" stroke-width="1"/>
  <text x="600" y="1198" text-anchor="middle" font-size="14" fill="#ffaa44" letter-spacing="3" font-weight="600">④ FILE MAP — EVERY FILE AND ITS PURPOSE</text>

  <!-- Column headers -->
  <rect x="80" y="1210" width="340" height="24" rx="6" fill="#1a3a5c"/>
  <text x="250" y="1226" text-anchor="middle" font-size="11" font-weight="700" fill="#4a9eff">cortex-m33/  (bare-metal firmware)</text>

  <rect x="440" y="1210" width="340" height="24" rx="6" fill="#3a1a1a"/>
  <text x="610" y="1226" text-anchor="middle" font-size="11" font-weight="700" fill="#ff7a7a">cortex-a35/  (Linux userspace)</text>

  <rect x="800" y="1210" width="380" height="24" rx="6" fill="#1a1a3a"/>
  <text x="990" y="1226" text-anchor="middle" font-size="11" font-weight="700" fill="#9a7aff">shared/ · scripts/ · CI</text>

  <!-- M33 files -->
  <g font-size="9.5">
    <text x="90" y="1252" fill="#ff9a9a" font-weight="600">Core/Src/main.c</text>
    <text x="90" y="1264" fill="#667788">Entry point, main loop, OTA freeze, LED blink</text>

    <text x="90" y="1282" fill="#ff9a9a" font-weight="600">Core/Src/ipc_handler.c</text>
    <text x="90" y="1294" fill="#667788">vring driver · NS announcement · command dispatch</text>

    <text x="90" y="1312" fill="#ff9a9a" font-weight="600">Core/Src/uart_log.c</text>
    <text x="90" y="1324" fill="#667788">UART4 @ 115200 · LOG_INFO/WARN/ERR macros</text>

    <text x="90" y="1342" fill="#ff9a9a" font-weight="600">Core/Src/syscalls.c</text>
    <text x="90" y="1354" fill="#667788">Newlib stubs (_close/_read/_write…) — no warnings</text>

    <text x="90" y="1372" fill="#ff9a9a" font-weight="600">Core/Inc/ipc_handler.h</text>
    <text x="90" y="1384" fill="#667788">Protocol defines: IPC_CMD_*, IPC_SOF_*, packet sizes</text>

    <text x="90" y="1402" fill="#ff9a9a" font-weight="600">Core/Inc/fw_version.h</text>
    <text x="90" y="1414" fill="#667788">v1.0.0 + BUILD_TIMESTAMP → GET_VERSION response</text>

    <text x="90" y="1432" fill="#ff9a9a" font-weight="600">STM32MP257FAIX_FLASH.ld</text>
    <text x="90" y="1444" fill="#667788">SRAM1(rx)/SRAM2(rw) · .resource_table section · heap</text>

    <text x="90" y="1462" fill="#ff9a9a" font-weight="600">Core/Startup/startup_…m33.s</text>
    <text x="90" y="1474" fill="#667788">Reset_Handler: copy .data, zero .bss, jump main()</text>

    <text x="90" y="1492" fill="#ff9a9a" font-weight="600">cmake/toolchain-m33.cmake</text>
    <text x="90" y="1504" fill="#667788">arm-none-eabi-gcc cross-compiler configuration</text>

    <text x="90" y="1522" fill="#ff9a9a" font-weight="600">CMakeLists.txt</text>
    <text x="90" y="1534" fill="#667788">Sources, flags (-mcpu=cortex-m33 -mthumb …), targets</text>
  </g>

  <!-- A35 files -->
  <g font-size="9.5">
    <text x="450" y="1252" fill="#7ab8ff" font-weight="600">app/src/main.cpp</text>
    <text x="450" y="1264" fill="#667788">Demo app: PING/LED/BLINK/STATUS every 1 s</text>

    <text x="450" y="1282" fill="#7ab8ff" font-weight="600">app/src/ipc_rpmsg.cpp</text>
    <text x="450" y="1294" fill="#667788">RpmsgChannel: open, send_cmd, receive_resp, poll()</text>

    <text x="450" y="1312" fill="#ffaa44" font-weight="600">app/src/ota_manager.cpp</text>
    <text x="450" y="1324" fill="#667788">Full OTA engine: verify→prepare→stop→install→start→ping</text>

    <text x="450" y="1342" fill="#ffaa44" font-weight="600">app/src/ota_cli.cpp</text>
    <text x="450" y="1354" fill="#667788">CLI binary: parse args · query version · call update()</text>

    <text x="450" y="1372" fill="#7ab8ff" font-weight="600">app/include/ipc_rpmsg.h</text>
    <text x="450" y="1384" fill="#667788">RpmsgChannel class · CmdPacket/RespPacket structs</text>

    <text x="450" y="1402" fill="#ffaa44" font-weight="600">app/include/ota_manager.h</text>
    <text x="450" y="1414" fill="#667788">OtaManager class · Config · Version · Result enum</text>

    <text x="450" y="1432" fill="#7ab8ff" font-weight="600">cmake/toolchain-aarch64.cmake</text>
    <text x="450" y="1444" fill="#667788">aarch64-linux-gnu-g++ cross-compiler configuration</text>

    <text x="450" y="1462" fill="#7ab8ff" font-weight="600">CMakeLists.txt</text>
    <text x="450" y="1474" fill="#667788">ipc_ota static lib · stm32mp257fdk_app · ota_update</text>
  </g>

  <!-- Shared + CI files -->
  <g font-size="9.5">
    <text x="810" y="1252" fill="#bb9aff" font-weight="600">shared/ipc/resource_table.h/.c</text>
    <text x="810" y="1264" fill="#667788">OpenAMP resource table — remoteproc reads from ELF</text>

    <text x="810" y="1282" fill="#bb9aff" font-weight="600">shared/ipc/virt_uart.h</text>
    <text x="810" y="1294" fill="#667788">Channel name "rpmsg-tty" + endpoint addr 0x400</text>

    <text x="810" y="1312" fill="#88cc88" font-weight="600">scripts/build_all.sh</text>
    <text x="810" y="1324" fill="#667788">cmake + ninja for both cores locally</text>

    <text x="810" y="1342" fill="#88cc88" font-weight="600">scripts/flash_m33.sh</text>
    <text x="810" y="1354" fill="#667788">scp ELF to board + start via remoteproc</text>

    <text x="810" y="1372" fill="#88cc88" font-weight="600">scripts/start_m33_remoteproc.sh</text>
    <text x="810" y="1384" fill="#667788">echo start > remoteproc0/state on the board</text>

    <text x="810" y="1402" fill="#ffcc44" font-weight="600">.github/workflows/build.yml</text>
    <text x="810" y="1414" fill="#667788">CI: M33 (ubuntu-22.04, arm-none-eabi-gcc)</text>
    <text x="810" y="1426" fill="#667788">     A35 (ubuntu-22.04, aarch64-linux-gnu-g++)</text>

    <text x="810" y="1452" fill="#aabbcc" font-weight="600">build/m33/stm32mp257fdk_m33</text>
    <text x="810" y="1464" fill="#667788">ELF → /lib/firmware/ on board (remoteproc)</text>

    <text x="810" y="1482" fill="#aabbcc" font-weight="600">build/m33/stm32mp257fdk_m33.bin</text>
    <text x="810" y="1494" fill="#667788">BIN → JTAG @ 0x0A000000 (STM32CubeProgrammer)</text>
  </g>

  <!-- Dividers between columns -->
  <line x1="430" y1="1240" x2="430" y2="1560" stroke="#ffffff0d" stroke-width="1"/>
  <line x1="795" y1="1240" x2="795" y2="1560" stroke="#ffffff0d" stroke-width="1"/>

  <!-- Footer -->
  <line x1="80" y1="1570" x2="1120" y2="1570" stroke="#4a9eff22" stroke-width="1"/>
  <text x="600" y="1595" text-anchor="middle" font-size="10" fill="#445566">STM32MP257FDK · arm-none-eabi-gcc 15.2.1 · aarch64-linux-gnu-g++ · CMake 3.25+ · Ninja</text>
  <text x="600" y="1612" text-anchor="middle" font-size="10" fill="#334455">Build: 21 TUs · text=11568 B · data=184 B · bss=8728 B · total=20480 B</text>
</svg>
